<mxfile host="app.diagrams.net" modified="2023-05-15T02:23:57.866Z" agent="Mozilla/5.0 (X11; Linux x86_64; rv:109.0) Gecko/20100101 Firefox/112.0" etag="BBsblqfRKuGkHtLeJxTI" version="21.3.0" type="device">
  <diagram name="Page-1" id="FI0m2LCg7XvAeS_a68Oa">
    <mxGraphModel dx="1154" dy="515" grid="1" gridSize="10" guides="1" tooltips="1" connect="1" arrows="1" fold="1" page="1" pageScale="1" pageWidth="850" pageHeight="1100" math="0" shadow="0">
      <root>
        <mxCell id="0" />
        <mxCell id="1" parent="0" />
        <mxCell id="zgj7mWGrWV2BeV52StWQ-25" style="edgeStyle=orthogonalEdgeStyle;rounded=0;orthogonalLoop=1;jettySize=auto;html=1;exitX=0;exitY=0.5;exitDx=0;exitDy=0;entryX=0.5;entryY=0;entryDx=0;entryDy=0;" edge="1" parent="1" source="zgj7mWGrWV2BeV52StWQ-1" target="zgj7mWGrWV2BeV52StWQ-23">
          <mxGeometry relative="1" as="geometry" />
        </mxCell>
        <mxCell id="zgj7mWGrWV2BeV52StWQ-26" style="edgeStyle=orthogonalEdgeStyle;rounded=0;orthogonalLoop=1;jettySize=auto;html=1;exitX=0.5;exitY=1;exitDx=0;exitDy=0;entryX=0.5;entryY=0;entryDx=0;entryDy=0;" edge="1" parent="1" source="zgj7mWGrWV2BeV52StWQ-1" target="zgj7mWGrWV2BeV52StWQ-8">
          <mxGeometry relative="1" as="geometry">
            <Array as="points">
              <mxPoint x="340" y="310" />
              <mxPoint x="300" y="310" />
            </Array>
          </mxGeometry>
        </mxCell>
        <mxCell id="zgj7mWGrWV2BeV52StWQ-1" value="Carbon Monoxide" style="rounded=0;whiteSpace=wrap;html=1;" vertex="1" parent="1">
          <mxGeometry x="300" y="240" width="80" height="60" as="geometry" />
        </mxCell>
        <mxCell id="zgj7mWGrWV2BeV52StWQ-2" value="HV+ Chemical Reactor" style="text;html=1;strokeColor=none;fillColor=none;align=center;verticalAlign=middle;whiteSpace=wrap;rounded=0;" vertex="1" parent="1">
          <mxGeometry x="380" y="225" width="140" height="15" as="geometry" />
        </mxCell>
        <mxCell id="zgj7mWGrWV2BeV52StWQ-14" style="edgeStyle=orthogonalEdgeStyle;rounded=0;orthogonalLoop=1;jettySize=auto;html=1;exitX=1;exitY=0.5;exitDx=0;exitDy=0;entryX=0;entryY=0;entryDx=0;entryDy=0;" edge="1" parent="1" source="zgj7mWGrWV2BeV52StWQ-4" target="zgj7mWGrWV2BeV52StWQ-11">
          <mxGeometry relative="1" as="geometry" />
        </mxCell>
        <mxCell id="zgj7mWGrWV2BeV52StWQ-4" value="Titanium Tetrachloride" style="rounded=0;whiteSpace=wrap;html=1;" vertex="1" parent="1">
          <mxGeometry x="380" y="240" width="80" height="60" as="geometry" />
        </mxCell>
        <mxCell id="zgj7mWGrWV2BeV52StWQ-6" style="edgeStyle=orthogonalEdgeStyle;rounded=0;orthogonalLoop=1;jettySize=auto;html=1;exitX=0.5;exitY=1;exitDx=0;exitDy=0;entryX=1;entryY=0;entryDx=0;entryDy=0;" edge="1" parent="1" source="zgj7mWGrWV2BeV52StWQ-5" target="zgj7mWGrWV2BeV52StWQ-1">
          <mxGeometry relative="1" as="geometry" />
        </mxCell>
        <mxCell id="zgj7mWGrWV2BeV52StWQ-5" value="Rutile Dust" style="shape=parallelogram;perimeter=parallelogramPerimeter;whiteSpace=wrap;html=1;fixedSize=1;" vertex="1" parent="1">
          <mxGeometry x="330" y="180" width="100" height="40" as="geometry" />
        </mxCell>
        <mxCell id="zgj7mWGrWV2BeV52StWQ-20" style="edgeStyle=orthogonalEdgeStyle;rounded=0;orthogonalLoop=1;jettySize=auto;html=1;exitX=1;exitY=0.5;exitDx=0;exitDy=0;entryX=0;entryY=1;entryDx=0;entryDy=0;" edge="1" parent="1" source="zgj7mWGrWV2BeV52StWQ-8" target="zgj7mWGrWV2BeV52StWQ-4">
          <mxGeometry relative="1" as="geometry" />
        </mxCell>
        <mxCell id="zgj7mWGrWV2BeV52StWQ-8" value="Carbon Dust" style="rounded=0;whiteSpace=wrap;html=1;" vertex="1" parent="1">
          <mxGeometry x="270" y="330" width="60" height="60" as="geometry" />
        </mxCell>
        <mxCell id="zgj7mWGrWV2BeV52StWQ-18" style="edgeStyle=orthogonalEdgeStyle;rounded=0;orthogonalLoop=1;jettySize=auto;html=1;exitX=0.5;exitY=1;exitDx=0;exitDy=0;entryX=0;entryY=0;entryDx=0;entryDy=0;" edge="1" parent="1" source="zgj7mWGrWV2BeV52StWQ-10" target="zgj7mWGrWV2BeV52StWQ-17">
          <mxGeometry relative="1" as="geometry" />
        </mxCell>
        <mxCell id="zgj7mWGrWV2BeV52StWQ-10" value="Magnesium Chloride Dust" style="rounded=0;whiteSpace=wrap;html=1;" vertex="1" parent="1">
          <mxGeometry x="440" y="330" width="70" height="60" as="geometry" />
        </mxCell>
        <mxCell id="zgj7mWGrWV2BeV52StWQ-13" style="edgeStyle=orthogonalEdgeStyle;rounded=0;orthogonalLoop=1;jettySize=auto;html=1;exitX=1;exitY=0.5;exitDx=0;exitDy=0;entryX=0;entryY=0.5;entryDx=0;entryDy=0;" edge="1" parent="1" source="zgj7mWGrWV2BeV52StWQ-11" target="zgj7mWGrWV2BeV52StWQ-12">
          <mxGeometry relative="1" as="geometry" />
        </mxCell>
        <mxCell id="zgj7mWGrWV2BeV52StWQ-11" value="Hot Titanium Ingot" style="rounded=0;whiteSpace=wrap;html=1;" vertex="1" parent="1">
          <mxGeometry x="510" y="330" width="70" height="60" as="geometry" />
        </mxCell>
        <mxCell id="zgj7mWGrWV2BeV52StWQ-12" value="Titanium Ingot" style="ellipse;whiteSpace=wrap;html=1;" vertex="1" parent="1">
          <mxGeometry x="610" y="330" width="100" height="60" as="geometry" />
        </mxCell>
        <mxCell id="zgj7mWGrWV2BeV52StWQ-19" style="edgeStyle=orthogonalEdgeStyle;rounded=0;orthogonalLoop=1;jettySize=auto;html=1;exitX=0;exitY=0.5;exitDx=0;exitDy=0;entryX=0;entryY=1;entryDx=0;entryDy=0;" edge="1" parent="1" source="zgj7mWGrWV2BeV52StWQ-16" target="zgj7mWGrWV2BeV52StWQ-4">
          <mxGeometry relative="1" as="geometry" />
        </mxCell>
        <mxCell id="zgj7mWGrWV2BeV52StWQ-16" value="Chlorine" style="rounded=0;whiteSpace=wrap;html=1;" vertex="1" parent="1">
          <mxGeometry x="410" y="420" width="65" height="60" as="geometry" />
        </mxCell>
        <mxCell id="zgj7mWGrWV2BeV52StWQ-22" style="edgeStyle=orthogonalEdgeStyle;rounded=0;orthogonalLoop=1;jettySize=auto;html=1;exitX=1;exitY=0.5;exitDx=0;exitDy=0;entryX=0;entryY=0;entryDx=0;entryDy=0;" edge="1" parent="1" source="zgj7mWGrWV2BeV52StWQ-17" target="zgj7mWGrWV2BeV52StWQ-11">
          <mxGeometry relative="1" as="geometry">
            <Array as="points">
              <mxPoint x="540" y="420" />
              <mxPoint x="730" y="420" />
              <mxPoint x="730" y="300" />
              <mxPoint x="510" y="300" />
            </Array>
          </mxGeometry>
        </mxCell>
        <mxCell id="zgj7mWGrWV2BeV52StWQ-17" value="Magnesium Dust" style="rounded=0;whiteSpace=wrap;html=1;" vertex="1" parent="1">
          <mxGeometry x="475" y="420" width="65" height="60" as="geometry" />
        </mxCell>
        <mxCell id="zgj7mWGrWV2BeV52StWQ-23" value="Oxygen" style="ellipse;whiteSpace=wrap;html=1;" vertex="1" parent="1">
          <mxGeometry x="210" y="330" width="60" height="60" as="geometry" />
        </mxCell>
        <mxCell id="zgj7mWGrWV2BeV52StWQ-28" value="HV+ &amp;amp; Kanthal+ EBF" style="text;html=1;strokeColor=none;fillColor=none;align=center;verticalAlign=middle;whiteSpace=wrap;rounded=0;" vertex="1" parent="1">
          <mxGeometry x="510" y="315" width="120" height="15" as="geometry" />
        </mxCell>
        <mxCell id="zgj7mWGrWV2BeV52StWQ-29" value="Vacuum Freezer" style="text;html=1;strokeColor=none;fillColor=none;align=center;verticalAlign=middle;whiteSpace=wrap;rounded=0;" vertex="1" parent="1">
          <mxGeometry x="620" y="390" width="90" height="15" as="geometry" />
        </mxCell>
        <mxCell id="zgj7mWGrWV2BeV52StWQ-31" value="Electrolyzer" style="text;html=1;strokeColor=none;fillColor=none;align=center;verticalAlign=middle;whiteSpace=wrap;rounded=0;" vertex="1" parent="1">
          <mxGeometry x="475" y="405" width="75" height="15" as="geometry" />
        </mxCell>
        <mxCell id="zgj7mWGrWV2BeV52StWQ-32" value="Electrolyzer" style="text;html=1;strokeColor=none;fillColor=none;align=center;verticalAlign=middle;whiteSpace=wrap;rounded=0;" vertex="1" parent="1">
          <mxGeometry x="230" y="390" width="75" height="15" as="geometry" />
        </mxCell>
      </root>
    </mxGraphModel>
  </diagram>
</mxfile>
